<?xml version="1.0" encoding="UTF-8"?>
<svg enable-background="new 0 0 38.1 38.1" version="1.1" viewBox="0 0 38.1 38.1" xmlns="http://www.w3.org/2000/svg" xmlns:xlink="http://www.w3.org/1999/xlink">
 <style type="text/css">.st0{fill:#0190B0;} .st1{fill:#00A5CB;} .st2{clip-path:url(#c);} .st3{fill:#DCDBDB;} .st4{fill:#FFFFFF;} .st5{fill:#F2F2F2;} .st6{clip-path:url(#SVGID_4_);} .st7{fill:none;} .st8{fill:none;stroke:#FFFFFF;stroke-miterlimit:10;} .st9{clip-path:url(#SVGID_6_);} .st10{clip-path:url(#SVGID_8_);} .st11{clip-path:url(#SVGID_10_);}</style>
 <circle class="st0" cx="19" cy="19" r="18.8"/>
 <path class="st1" d="M19.1,37.9C8.6,37.9,0.2,29.4,0.2,19S8.6,0.2,19.1,0.2"/>
 <polygon class="st4" points="12.6 20.3 22.6 10.8 25.4 13.7 15.4 23.3"/>
 <path class="st4" d="m27.2 11.9c0-0.1-2.8-2.9-2.8-2.9s2-2 2.2-2.1c0.4-0.3 0.9-0.3 1.3 0 0.1 0.1 1.4 1.4 1.5 1.6 0.3 0.4 0.3 1 0 1.4-0.4 0.3-2 1.8-2.2 2z"/>
 <path class="st4" d="m12.1 20.8s2.8 2.9 2.8 2.9c-0.4 0.1-3.7 0.8-3.7 0.8s0.9-3.6 0.9-3.7z"/>
 <rect class="st4" transform="matrix(-.7213 .6926 -.6926 -.7213 50.69 2.3802)" x="24.4" y="9.4" width=".9" height="4.1"/>
 <rect class="st7" x="4.9" y="23.2" width="29" height="10.6"/>
 <defs>
  <circle id="d" cx="19" cy="19" r="18.3"/>
 </defs>
 <clipPath id="c">
  <use xlink:href="#d"/>
 </clipPath>
 <g class="st2">
  <path class="st3" d="m15.3 31.1c1.5 0 4.6-6.9 6.2-6.9h-1.8c-1.6 0-4.8 6.9-6.3 6.9h1.9z"/>
  <path class="st3" d="m12.1 31.1c1.5 0 4.6-6.9 6.2-6.9h-1.8c-1.6 0-4.8 6.9-6.3 6.9h1.9z"/>
  <path class="st3" d="M3.2,31.1c1.5,0,4.6-6.9,6.2-6.9H7.7c-1.6,0-4.8,6.9-6.3,6.9H3.2z"/>
  <path class="st3" d="m-0.1 31.1c1.5 0 4.6-6.9 6.2-6.9h-1.7c-1.6 0-4.8 6.7-6.3 6.7l1.8 0.2z"/>
  <path class="st3" d="M27.5,31.1c1.5,0,4.6-6.9,6.2-6.9H32c-1.6,0-4.8,6.9-6.3,6.9H27.5z"/>
  <path class="st3" d="m24.2 31.1c1.5 0 4.6-6.9 6.2-6.9h-1.8c-1.6 0-4.8 6.9-6.3 6.9h1.9z"/>
  <path class="st4" d="m13.8 31.1c-1.5 0-4.6-6.9-6.3-6.9h1.8c1.6 0 4.8 6.9 6.4 6.9h-1.9z"/>
  <path class="st4" d="M10.5,31.1c-1.5,0-4.6-6.9-6.3-6.9H6c1.6,0,4.8,6.9,6.4,6.9H10.5z"/>
  <path class="st4" d="m22.6 31.1c-1.5 0-4.6-6.9-6.3-6.9h1.8c1.6 0 4.8 6.9 6.4 6.9h-1.9z"/>
  <path class="st4" d="m25.9 31.1c-1.5 0-4.6-6.9-6.3-6.9h1.8c1.6 0 4.8 6.9 6.4 6.9h-1.9z"/>
  <path class="st4" d="m34.1 31.1c-1.5 0-3.6-6.9-5.3-6.9h1.5c1.6 0 4.1 6.9 5.6 6.9h-1.8z"/>
  <path class="st4" d="m37.3 31.1c-1.5 0-3.9-6.9-5.6-6.9h1.8c1.6 0 4.1 6.9 5.7 6.9h-1.9z"/>
 </g>
</svg>
